<svg width="44.000000" height="44.000000" viewBox="0 0 44 44" fill="none" xmlns="http://www.w3.org/2000/svg" xmlns:xlink="http://www.w3.org/1999/xlink">
	<desc>
			Created with Pixso.
	</desc>
	<defs>
		<clipPath id="clip110_299">
			<rect width="44.000000" height="44.000000" fill="white" fill-opacity="0"/>
		</clipPath>
	</defs>
	<rect width="44.000000" height="44.000000" fill="#FFFFFF" fill-opacity="0"/>
	<g clip-path="url(#clip110_299)">
		<path d="M30.26 7.26C29.45 3.48 27.16 0.89 26.13 0.38C23.8 -0.78 23.03 1.07 22 1.07C20.96 1.07 20.19 -0.78 17.86 0.38C16.83 0.89 14.54 3.48 13.73 7.26C12.93 11.05 22 7.95 22 7.95C22 7.95 31.06 11.05 30.26 7.26Z" fill="#FFD24F" fill-opacity="1.000000" fill-rule="nonzero"/>
		<path d="M37.83 12.73C37.83 15.96 30.74 18.58 22 18.58C13.25 18.58 6.16 15.96 6.16 12.73C6.16 9.5 13.25 6.88 22 6.88C30.74 6.88 37.83 9.5 37.83 12.73Z" fill="#FFBE1E" fill-opacity="1.000000" fill-rule="evenodd"/>
		<path d="M12.68 16.97C11.65 16.71 10.97 17.26 10.97 18.34C10.97 19.78 12.36 23.29 13.82 21.1C15.28 18.9 12.68 16.97 12.68 16.97Z" fill="#FFE1B2" fill-opacity="1.000000" fill-rule="nonzero"/>
		<path d="M31.14 16.97C32.26 16.71 33 17.26 33 18.34C33 19.78 31.49 23.29 29.89 21.1C28.3 18.9 31.14 16.97 31.14 16.97Z" fill="#FFE1B2" fill-opacity="1.000000" fill-rule="nonzero"/>
		<path d="M14.43 29.48C15.97 28.49 15.8 25.54 15.8 24.85L28.19 24.85C28.19 25.54 28 28.49 29.54 29.48L22 37.93L14.43 29.48Z" fill="#FFD7A3" fill-opacity="1.000000" fill-rule="nonzero"/>
		<path d="M26.81 32.43L29.54 29.48C28 28.49 28.19 25.54 28.19 24.85L15.8 24.85C16.69 27.41 22.57 31.8 26.81 32.43Z" fill="#FDC88E" fill-opacity="1.000000" fill-rule="nonzero"/>
		<path d="M37.83 44C38.97 44 39.89 43.07 39.89 41.93L39.89 37.83C39.89 34.8 37.53 31.57 34.65 30.64L30.34 29.26C28.02 31.04 24.71 33.45 22 33.45C19.28 33.45 15.97 31.04 13.65 29.26L9.34 30.64C6.46 31.57 4.1 34.8 4.1 37.83L4.1 41.93C4.1 43.07 5.02 44 6.16 44L37.83 44Z" fill="#FF6953" fill-opacity="1.000000" fill-rule="nonzero"/>
		<path d="M39.85 42.36L38.78 42.36L38.78 40.91L39.89 40.91L39.89 39.85L38.78 39.85L38.78 38.41L39.89 38.41L39.89 37.83C39.89 37.67 39.88 37.51 39.87 37.35L38.78 37.35L38.78 35.91L39.59 35.91C39.48 35.55 39.34 35.2 39.18 34.85L38.78 34.85L38.78 34.1C38.4 33.46 37.93 32.87 37.4 32.35L36.28 32.35L36.28 31.44C35.76 31.1 35.22 30.82 34.65 30.64L32.17 29.85L31.28 29.85L31.28 29.56L30.34 29.26C30.3 29.29 30.26 29.32 30.22 29.35L30.22 29.85L29.57 29.85C28.99 30.28 28.37 30.73 27.72 31.16L27.72 32.35L26.27 32.35L26.27 32.05C25.06 32.73 23.81 33.25 22.65 33.4L22.72 33.4L22.72 34.85L21.27 34.85L21.27 33.4L21.34 33.4C20.18 33.25 18.93 32.73 17.72 32.05L17.72 32.35L16.27 32.35L16.27 31.16C15.62 30.73 15 30.28 14.42 29.85L13.77 29.85L13.77 29.35C13.73 29.32 13.69 29.29 13.65 29.26L12.71 29.56L12.71 29.85L11.82 29.85L9.34 30.64C8.77 30.82 8.23 31.1 7.71 31.44L7.71 32.35L6.59 32.35C6.06 32.87 5.59 33.46 5.21 34.1L5.21 34.85L4.81 34.85C4.65 35.2 4.51 35.55 4.4 35.91L5.21 35.91L5.21 37.35L4.12 37.35C4.11 37.51 4.1 37.67 4.1 37.83L4.1 38.41L5.21 38.41L5.21 39.85L4.1 39.85L4.1 40.91L5.21 40.91L5.21 42.36L4.14 42.36C4.23 42.77 4.44 43.13 4.73 43.41L5.21 43.41L5.21 43.75C5.5 43.9 5.82 44 6.16 44L6.26 44L6.26 43.41L7.71 43.41L7.71 44L8.77 44L8.77 43.41L10.21 43.41L10.21 44L11.27 44L11.27 43.41L12.71 43.41L12.71 44L13.77 44L13.77 43.41L15.22 43.41L15.22 44L16.27 44L16.27 43.41L17.72 43.41L17.72 44L18.77 44L18.77 43.41L20.22 43.41L20.22 44L21.27 44L21.27 43.41L22.72 43.41L22.72 44L23.77 44L23.77 43.41L25.22 43.41L25.22 44L26.27 44L26.27 43.41L27.72 43.41L27.72 44L28.78 44L28.78 43.41L30.22 43.41L30.22 44L31.28 44L31.28 43.41L32.72 43.41L32.72 44L33.78 44L33.78 43.41L35.23 43.41L35.23 44L36.28 44L36.28 43.41L37.73 43.41L37.73 44L37.83 44C38.17 44 38.49 43.9 38.78 43.75L38.78 43.41L39.27 43.41C39.55 43.13 39.76 42.77 39.85 42.36ZM7.71 42.36L6.26 42.36L6.26 40.91L7.71 40.91L7.71 42.36ZM7.71 39.85L6.26 39.85L6.26 38.41L7.71 38.41L7.71 39.85ZM7.71 37.35L6.26 37.35L6.26 35.91L7.71 35.91L7.71 37.35ZM7.71 34.85L6.26 34.85L6.26 33.4L7.71 33.4L7.71 34.85ZM10.21 42.36L8.77 42.36L8.77 40.91L10.21 40.91L10.21 42.36ZM10.21 39.85L8.77 39.85L8.77 38.41L10.21 38.41L10.21 39.85ZM10.21 37.35L8.77 37.35L8.77 35.91L10.21 35.91L10.21 37.35ZM10.21 34.85L8.77 34.85L8.77 33.4L10.21 33.4L10.21 34.85ZM10.21 32.35L8.77 32.35L8.77 30.9L10.21 30.9L10.21 32.35ZM12.71 42.36L11.27 42.36L11.27 40.91L12.71 40.91L12.71 42.36ZM12.71 39.85L11.27 39.85L11.27 38.41L12.71 38.41L12.71 39.85ZM12.71 37.35L11.27 37.35L11.27 35.91L12.71 35.91L12.71 37.35ZM12.71 34.85L11.27 34.85L11.27 33.4L12.71 33.4L12.71 34.85ZM12.71 32.35L11.27 32.35L11.27 30.9L12.71 30.9L12.71 32.35ZM15.22 42.36L13.77 42.36L13.77 40.91L15.22 40.91L15.22 42.36ZM15.22 39.85L13.77 39.85L13.77 38.41L15.22 38.41L15.22 39.85ZM15.22 37.35L13.77 37.35L13.77 35.91L15.22 35.91L15.22 37.35ZM15.22 34.85L13.77 34.85L13.77 33.4L15.22 33.4L15.22 34.85ZM15.22 32.35L13.77 32.35L13.77 30.9L15.22 30.9L15.22 32.35ZM17.72 42.36L16.27 42.36L16.27 40.91L17.72 40.91L17.72 42.36ZM17.72 39.85L16.27 39.85L16.27 38.41L17.72 38.41L17.72 39.85ZM17.72 37.35L16.27 37.35L16.27 35.91L17.72 35.91L17.72 37.35ZM17.72 34.85L16.27 34.85L16.27 33.4L17.72 33.4L17.72 34.85ZM20.22 42.36L18.77 42.36L18.77 40.91L20.22 40.91L20.22 42.36ZM20.22 39.85L18.77 39.85L18.77 38.41L20.22 38.41L20.22 39.85ZM20.22 37.35L18.77 37.35L18.77 35.91L20.22 35.91L20.22 37.35ZM20.22 34.85L18.77 34.85L18.77 33.4L20.22 33.4L20.22 34.85ZM22.72 42.36L21.27 42.36L21.27 40.91L22.72 40.91L22.72 42.36ZM22.72 39.85L21.27 39.85L21.27 38.41L22.72 38.41L22.72 39.85ZM22.72 37.35L21.27 37.35L21.27 35.91L22.72 35.91L22.72 37.35ZM25.22 42.36L23.77 42.36L23.77 40.91L25.22 40.91L25.22 42.36ZM25.22 39.85L23.77 39.85L23.77 38.41L25.22 38.41L25.22 39.85ZM25.22 37.35L23.77 37.35L23.77 35.91L25.22 35.91L25.22 37.35ZM25.22 34.85L23.77 34.85L23.77 33.4L25.22 33.4L25.22 34.85ZM27.72 42.36L26.27 42.36L26.27 40.91L27.72 40.91L27.72 42.36ZM27.72 39.85L26.27 39.85L26.27 38.41L27.72 38.41L27.72 39.85ZM27.72 37.35L26.27 37.35L26.27 35.91L27.72 35.91L27.72 37.35ZM27.72 34.85L26.27 34.85L26.27 33.4L27.72 33.4L27.72 34.85ZM30.22 42.36L28.77 42.36L28.77 40.91L30.22 40.91L30.22 42.36ZM30.22 39.85L28.77 39.85L28.77 38.41L30.22 38.41L30.22 39.85ZM30.22 37.35L28.77 37.35L28.77 35.91L30.22 35.91L30.22 37.35ZM30.22 34.85L28.77 34.85L28.77 33.4L30.22 33.4L30.22 34.85ZM30.22 32.35L28.77 32.35L28.77 30.9L30.22 30.9L30.22 32.35ZM32.72 42.36L31.28 42.36L31.28 40.91L32.72 40.91L32.72 42.36ZM32.72 39.85L31.28 39.85L31.28 38.41L32.72 38.41L32.72 39.85ZM32.72 37.35L31.28 37.35L31.28 35.91L32.72 35.91L32.72 37.35ZM32.72 34.85L31.28 34.85L31.28 33.4L32.72 33.4L32.72 34.85ZM32.72 32.35L31.28 32.35L31.28 30.9L32.72 30.9L32.72 32.35ZM35.22 42.36L33.78 42.36L33.78 40.91L35.22 40.91L35.22 42.36ZM35.22 39.85L33.78 39.85L33.78 38.41L35.22 38.41L35.22 39.85ZM35.22 37.35L33.78 37.35L33.78 35.91L35.22 35.91L35.22 37.35ZM35.22 34.85L33.78 34.85L33.78 33.4L35.22 33.4L35.22 34.85ZM35.22 32.35L33.78 32.35L33.78 30.9L35.22 30.9L35.22 32.35ZM37.73 42.36L36.28 42.36L36.28 40.91L37.73 40.91L37.73 42.36ZM37.73 39.85L36.28 39.85L36.28 38.41L37.73 38.41L37.73 39.85ZM37.73 37.35L36.28 37.35L36.28 35.91L37.73 35.91L37.73 37.35ZM37.73 34.85L36.28 34.85L36.28 33.4L37.73 33.4L37.73 34.85Z" fill="#E95F43" fill-opacity="1.000000" fill-rule="nonzero"/>
		<path d="M22 33.45L19.12 36.33C18.82 36.62 18.33 36.59 18.08 36.24L13.05 29.32L14.65 27.72C14.91 27.46 15.32 27.45 15.6 27.69L22 33.45Z" fill="#FFBE1E" fill-opacity="1.000000" fill-rule="nonzero"/>
		<path d="M22 33.45L24.87 36.33C25.17 36.62 25.66 36.59 25.91 36.24L30.94 29.32L29.34 27.72C29.08 27.46 28.67 27.45 28.39 27.69L22 33.45Z" fill="#FFBE1E" fill-opacity="1.000000" fill-rule="nonzero"/>
		<path d="M12.79 12.31C12.63 13.29 12.62 14.46 12.62 15.85C12.62 21.36 15.71 28.24 22 28.24C28.28 28.24 31.37 21.36 31.37 15.85C31.37 14.46 31.36 13.29 31.2 12.31C28.68 11.46 25.48 10.95 22 10.95C18.51 10.95 15.31 11.46 12.79 12.31Z" fill="#FFE1B2" fill-opacity="1.000000" fill-rule="nonzero"/>
		<path d="M31.41 13.43C30.86 12.72 30.27 11.99 30.27 11.99L30.27 12.68C30.44 18.92 28.22 21.63 28.22 21.63L25.39 21.95C23.18 22.19 20.96 22.19 18.75 21.95L15.92 21.63C15.92 21.63 13.7 18.92 13.87 12.68L13.87 11.99C13.87 11.99 13.28 12.72 12.73 13.43C12.59 14.04 12.36 14.71 12.36 15.44C12.36 20.95 15.66 28.9 22.07 28.9C28.48 28.9 31.63 20.95 31.63 15.44C31.63 14.71 31.55 14.04 31.41 13.43ZM20.02 23.26L24.12 23.26C24.68 23.26 25.16 23.61 25.37 24.1C24.62 24.43 23.45 24.64 22.15 24.64C20.76 24.64 19.55 24.4 18.8 24.04C19.02 23.58 19.48 23.26 20.02 23.26Z" fill="#A7795E" fill-opacity="1.000000" fill-rule="nonzero"/>
		<path d="M22.36 22.65C22.36 21.74 21.48 21.54 20.9 21.76C19.83 22.16 18.66 23.29 17.67 22.59C17.67 22.59 18.02 24.05 18.6 24.05C19.76 24.05 22.36 24.2 22.36 22.65Z" fill="#543D38" fill-opacity="1.000000" fill-rule="nonzero"/>
		<path d="M22.08 22.65C22.08 21.74 22.96 21.54 23.55 21.76C24.61 22.16 25.78 23.29 26.77 22.59C26.77 22.59 26.43 24.05 25.85 24.05C24.69 24.05 22.08 24.2 22.08 22.65Z" fill="#543D38" fill-opacity="1.000000" fill-rule="nonzero"/>
		<path d="M33.7 30.25L30.94 29.37L30.94 37.84C30.94 38.15 30.74 38.43 30.43 38.51C28.1 39.08 25.18 39.42 22 39.42C18.81 39.42 15.89 39.08 13.56 38.51C13.26 38.43 13.05 38.15 13.05 37.84L13.05 29.37L10.29 30.25L10.29 44L33.7 44L33.7 30.25L33.7 30.25Z" fill="#C55F54" fill-opacity="1.000000" fill-rule="nonzero"/>
		<path d="M12.4 17.06L14.26 17.4C14.26 17.4 14.99 13.33 15.38 11.64C14.36 11.84 13.4 12.08 12.53 12.37C12.37 13.34 12.36 14.51 12.36 15.91C12.36 16.28 12.37 16.67 12.4 17.06Z" fill="#543D38" fill-opacity="1.000000" fill-rule="nonzero"/>
		<path d="M31.59 17.06L29.73 17.4C29.73 17.4 29 13.33 28.61 11.64C29.63 11.84 30.59 12.08 31.46 12.37C31.62 13.34 31.63 14.51 31.63 15.91C31.63 16.28 31.62 16.67 31.59 17.06Z" fill="#543D38" fill-opacity="1.000000" fill-rule="nonzero"/>
		<path d="M26.04 13.32L27.69 11.44C25.94 11.13 24.02 10.95 22 10.95C20.76 10.95 19.57 11.02 18.43 11.14C19.51 11.06 23.76 11.64 26.04 13.32Z" fill="#543D38" fill-opacity="1.000000" fill-rule="nonzero"/>
	</g>
</svg>
